<?xml version="1.0" standalone="no"?>
<!DOCTYPE svg PUBLIC "-//W3C//DTD SVG 20010904//EN"
 "http://www.w3.org/TR/2001/REC-SVG-20010904/DTD/svg10.dtd">
<svg version="1.0" xmlns="http://www.w3.org/2000/svg"
 width="630.000000pt" height="630.000000pt" viewBox="0 0 630.000000 630.000000"
 preserveAspectRatio="xMidYMid meet">
<metadata>
Created by potrace 1.14, written by Peter Selinger 2001-2017
</metadata>
<g transform="translate(0.000000,630.000000) scale(0.100000,-0.100000)"
fill="#000000" stroke="none">
<path d="M5245 5773 c-102 -22 -223 -78 -350 -162 -73 -49 -242 -208 -291
-276 -16 -22 -37 -49 -46 -59 -10 -11 -18 -25 -18 -32 0 -6 -8 -15 -17 -20
-10 -4 -682 -8 -1493 -9 -811 -2 -1483 -3 -1493 -4 -34 -2 -67 -47 -67 -90 0
-32 6 -44 31 -65 l31 -26 1444 0 c794 0 1444 -2 1444 -4 0 -2 -7 -21 -16 -42
-19 -44 -52 -154 -60 -198 -2 -16 -7 -32 -9 -35 -2 -4 -6 -31 -9 -61 -4 -30
-9 -68 -11 -85 -2 -16 -5 -494 -5 -1061 -1 -1083 -2 -1050 43 -1116 20 -30 90
-76 129 -84 12 -3 98 -5 191 -5 l167 1 1 -33 c3 -218 -1 -875 -6 -900 -7 -29
-39 -81 -72 -115 -9 -10 -447 -12 -2195 -10 l-2183 3 -44 23 c-44 24 -89 65
-116 105 -41 64 -41 38 -39 1752 1 902 4 1647 6 1655 21 74 68 133 143 176
l50 29 385 3 c261 2 392 6 407 14 12 6 29 26 38 44 14 29 14 37 1 68 -26 62
-30 63 -451 61 -435 -3 -461 -7 -572 -89 -92 -69 -137 -129 -172 -233 -19 -57
-20 -93 -20 -1733 -1 -1818 -4 -1705 54 -1820 56 -110 196 -216 311 -235 27
-5 999 -10 2159 -11 1161 -1 2115 -2 2121 -3 8 -1 10 -12 5 -33 -10 -45 -5
-131 10 -187 40 -150 176 -290 321 -328 13 -3 64 -7 113 -9 140 -4 240 37 338
139 87 90 127 196 127 335 0 45 3 83 8 83 4 1 81 2 172 3 204 3 267 19 372 95
87 63 159 177 176 281 8 50 7 3338 -1 3378 -34 158 -151 289 -308 343 -56 19
-86 22 -241 23 l-177 1 0 199 c0 121 -5 213 -12 235 -13 42 -52 86 -94 109
-29 15 -165 25 -210 15z m122 -187 c5 -4 8 -693 8 -1531 0 -1348 -2 -1524 -15
-1527 -8 -2 -203 -3 -433 -3 -297 1 -420 4 -425 12 -8 13 -7 2019 1 2078 47
344 213 632 477 827 146 108 348 183 387 144z m578 -580 c22 -11 61 -41 87
-67 84 -87 78 57 78 -1790 0 -1855 7 -1693 -84 -1785 -73 -73 -110 -83 -306
-83 l-159 0 0 1875 0 1876 172 -4 c144 -3 179 -6 212 -22z m-571 -3361 c0
-379 -3 -701 -6 -715 -9 -41 -29 -90 -38 -90 -5 0 -11 -9 -15 -19 -8 -25 -101
-87 -145 -97 -151 -33 -297 56 -329 202 -23 99 0 171 81 264 49 55 78 109 94
177 8 36 12 186 12 510 1 252 1 459 1 460 1 1 79 1 174 0 l172 -2 -1 -690z"/>
<path d="M2095 4793 c-215 -42 -387 -190 -455 -393 -28 -84 -35 -222 -15 -308
26 -111 99 -233 179 -301 15 -14 33 -30 40 -36 6 -6 34 -23 61 -39 164 -92
382 -95 550 -8 87 45 197 153 242 237 47 90 70 186 67 286 -2 96 -7 118 -35
193 -65 175 -223 313 -414 363 -25 6 -193 11 -220 6z m275 -225 c63 -32 140
-113 175 -183 27 -55 30 -69 30 -160 0 -91 -3 -106 -31 -166 -50 -105 -137
-182 -241 -213 -139 -42 -285 -5 -389 98 -120 121 -150 307 -73 458 31 60 115
140 182 171 107 51 244 49 347 -5z"/>
<path d="M899 4506 c-2 -2 -26 -6 -53 -10 -135 -16 -255 -128 -285 -265 -8
-37 -11 -354 -11 -1089 0 -1118 -1 -1083 53 -1168 37 -60 87 -104 147 -133 44
-21 72 -26 141 -28 76 -2 93 1 145 26 97 46 167 130 194 230 16 61 16 2094 0
2164 -6 27 -19 65 -29 85 -44 85 -152 164 -243 177 -24 4 -45 8 -49 11 -3 2
-8 2 -10 0z m73 -212 c34 -18 66 -58 76 -98 4 -17 7 -492 7 -1056 -1 -911 -3
-1028 -17 -1055 -47 -90 -158 -117 -237 -58 -67 51 -63 -10 -63 1129 0 944 1
1035 17 1067 21 45 44 66 91 82 42 14 85 10 126 -11z"/>
<path d="M3138 3979 c-285 -43 -497 -285 -499 -570 -3 -367 337 -643 699 -568
64 13 187 69 220 99 12 11 24 20 27 20 12 0 78 76 116 134 76 115 108 258 87
395 -31 211 -184 394 -386 465 -71 25 -189 36 -264 25z m198 -200 c60 -21 136
-72 176 -119 33 -38 68 -97 69 -117 1 -5 6 -17 11 -28 6 -10 12 -49 14 -85 17
-363 -410 -552 -668 -297 -43 42 -90 124 -104 182 -21 84 -6 192 39 279 45 87
174 183 267 198 47 8 157 0 196 -13z"/>
<path d="M3435 2738 c-16 -6 -61 -30 -100 -53 -38 -23 -93 -55 -122 -70 -28
-16 -58 -40 -66 -54 -19 -34 -12 -80 17 -109 36 -37 69 -37 139 0 34 18 64 35
67 38 3 3 29 18 59 34 43 23 55 26 62 15 29 -45 100 -171 97 -174 -2 -1 -88
-52 -193 -112 -559 -324 -764 -442 -805 -465 -25 -14 -68 -39 -96 -56 -90 -53
-166 -94 -168 -90 -2 2 -26 43 -55 92 -39 68 -49 91 -39 98 7 4 60 35 118 69
58 33 112 64 120 69 8 6 67 39 130 75 63 36 122 70 130 75 8 5 49 28 90 52
115 65 134 92 114 164 -13 49 -109 69 -153 31 -9 -8 -41 -27 -71 -43 -30 -16
-59 -33 -65 -37 -20 -16 -218 -127 -227 -127 -4 0 -8 -4 -8 -10 0 -5 -4 -10
-9 -10 -13 0 -301 -168 -325 -188 -68 -61 -64 -151 11 -272 11 -19 30 -51 41
-71 11 -20 26 -47 34 -60 17 -31 86 -99 101 -100 38 -2 64 -12 87 -33 52 -49
26 -47 860 -47 871 -1 829 -4 885 62 32 38 38 86 33 270 -3 142 -5 156 -26
187 -48 67 -48 67 -447 70 -198 1 -366 3 -373 5 -7 1 85 58 205 127 234 135
269 159 285 199 22 58 18 100 -19 169 -19 37 -42 75 -51 85 -8 9 -11 17 -7 17
4 0 2 8 -6 18 -8 9 -21 29 -28 44 -52 104 -137 148 -226 116z m485 -967 c25
-1 25 -1 24 -99 -1 -53 -2 -102 -3 -107 -1 -11 -1345 -15 -1355 -4 -8 8 330
202 363 209 20 4 870 5 971 1z"/>
</g>
</svg>
